<mxfile host="app.diagrams.net" agent="Mozilla/5.0 (Windows NT 10.0; Win64; x64) AppleWebKit/537.36 (KHTML, like Gecko) Chrome/133.0.0.0 Safari/537.36 OPR/118.0.0.0" version="27.0.1">
  <diagram name="Страница — 1" id="JoryRxgnPOOJfNZM5HKT">
    <mxGraphModel dx="2212" dy="764" grid="1" gridSize="10" guides="1" tooltips="1" connect="1" arrows="1" fold="1" page="1" pageScale="1" pageWidth="827" pageHeight="1169" math="0" shadow="0">
      <root>
        <mxCell id="0" />
        <mxCell id="1" parent="0" />
        <mxCell id="zIve4gpYKc9Zax5QovM5-11" style="edgeStyle=orthogonalEdgeStyle;rounded=0;orthogonalLoop=1;jettySize=auto;html=1;entryX=0;entryY=0.25;entryDx=0;entryDy=0;" edge="1" parent="1" source="J4mu1uU6xWbNiKVnrsFE-1" target="J4mu1uU6xWbNiKVnrsFE-6">
          <mxGeometry relative="1" as="geometry">
            <Array as="points">
              <mxPoint x="350" y="200" />
              <mxPoint x="350" y="365" />
            </Array>
          </mxGeometry>
        </mxCell>
        <mxCell id="zIve4gpYKc9Zax5QovM5-12" value="Созданная&lt;div&gt;&amp;nbsp;новость&lt;/div&gt;" style="edgeLabel;html=1;align=center;verticalAlign=middle;resizable=0;points=[];" vertex="1" connectable="0" parent="zIve4gpYKc9Zax5QovM5-11">
          <mxGeometry x="0.2" y="2" relative="1" as="geometry">
            <mxPoint as="offset" />
          </mxGeometry>
        </mxCell>
        <mxCell id="J4mu1uU6xWbNiKVnrsFE-1" value="Создание новостей" style="rounded=0;whiteSpace=wrap;html=1;" parent="1" vertex="1">
          <mxGeometry x="80" y="170" width="120" height="60" as="geometry" />
        </mxCell>
        <mxCell id="zIve4gpYKc9Zax5QovM5-6" style="edgeStyle=orthogonalEdgeStyle;rounded=0;orthogonalLoop=1;jettySize=auto;html=1;" edge="1" parent="1" source="J4mu1uU6xWbNiKVnrsFE-2">
          <mxGeometry relative="1" as="geometry">
            <mxPoint x="990" y="560" as="targetPoint" />
          </mxGeometry>
        </mxCell>
        <mxCell id="J4mu1uU6xWbNiKVnrsFE-2" value="Формирование ленты рекомендаций" style="rounded=0;whiteSpace=wrap;html=1;" parent="1" vertex="1">
          <mxGeometry x="810" y="530" width="120" height="60" as="geometry" />
        </mxCell>
        <mxCell id="zIve4gpYKc9Zax5QovM5-13" style="edgeStyle=orthogonalEdgeStyle;rounded=0;orthogonalLoop=1;jettySize=auto;html=1;entryX=0;entryY=0.5;entryDx=0;entryDy=0;" edge="1" parent="1" source="J4mu1uU6xWbNiKVnrsFE-5" target="J4mu1uU6xWbNiKVnrsFE-6">
          <mxGeometry relative="1" as="geometry">
            <Array as="points">
              <mxPoint x="310" y="300" />
              <mxPoint x="310" y="380" />
            </Array>
          </mxGeometry>
        </mxCell>
        <mxCell id="zIve4gpYKc9Zax5QovM5-14" value="&lt;font style=&quot;font-size: 8px;&quot;&gt;Данные о&lt;/font&gt;&lt;div&gt;&lt;font style=&quot;font-size: 8px;&quot;&gt;просмотренных&lt;/font&gt;&lt;/div&gt;&lt;div&gt;&lt;font style=&quot;font-size: 8px;&quot;&gt;&amp;nbsp;новостях&lt;/font&gt;&lt;/div&gt;" style="edgeLabel;html=1;align=center;verticalAlign=middle;resizable=0;points=[];" vertex="1" connectable="0" parent="zIve4gpYKc9Zax5QovM5-13">
          <mxGeometry x="-0.2053" relative="1" as="geometry">
            <mxPoint y="4" as="offset" />
          </mxGeometry>
        </mxCell>
        <mxCell id="J4mu1uU6xWbNiKVnrsFE-5" value="Просмотр новостей" style="rounded=0;whiteSpace=wrap;html=1;" parent="1" vertex="1">
          <mxGeometry x="160" y="270" width="120" height="60" as="geometry" />
        </mxCell>
        <mxCell id="zIve4gpYKc9Zax5QovM5-16" style="edgeStyle=orthogonalEdgeStyle;rounded=0;orthogonalLoop=1;jettySize=auto;html=1;entryX=0;entryY=0.5;entryDx=0;entryDy=0;" edge="1" parent="1" source="J4mu1uU6xWbNiKVnrsFE-6" target="zIve4gpYKc9Zax5QovM5-15">
          <mxGeometry relative="1" as="geometry" />
        </mxCell>
        <mxCell id="zIve4gpYKc9Zax5QovM5-17" value="&lt;font size=&quot;1&quot;&gt;Предпочтения&lt;/font&gt;&lt;div&gt;&lt;font size=&quot;1&quot;&gt;в новостях&lt;/font&gt;&lt;/div&gt;" style="edgeLabel;html=1;align=center;verticalAlign=middle;resizable=0;points=[];" vertex="1" connectable="0" parent="zIve4gpYKc9Zax5QovM5-16">
          <mxGeometry x="-0.0039" relative="1" as="geometry">
            <mxPoint as="offset" />
          </mxGeometry>
        </mxCell>
        <mxCell id="J4mu1uU6xWbNiKVnrsFE-6" value="Анализ предпочтений пользователя" style="rounded=0;whiteSpace=wrap;html=1;" parent="1" vertex="1">
          <mxGeometry x="390" y="350" width="120" height="60" as="geometry" />
        </mxCell>
        <mxCell id="zIve4gpYKc9Zax5QovM5-9" style="edgeStyle=orthogonalEdgeStyle;rounded=0;orthogonalLoop=1;jettySize=auto;html=1;entryX=0;entryY=0.5;entryDx=0;entryDy=0;" edge="1" parent="1" source="J4mu1uU6xWbNiKVnrsFE-25" target="J4mu1uU6xWbNiKVnrsFE-1">
          <mxGeometry relative="1" as="geometry" />
        </mxCell>
        <mxCell id="zIve4gpYKc9Zax5QovM5-10" style="edgeStyle=orthogonalEdgeStyle;rounded=0;orthogonalLoop=1;jettySize=auto;html=1;entryX=0;entryY=0.5;entryDx=0;entryDy=0;" edge="1" parent="1" source="J4mu1uU6xWbNiKVnrsFE-25" target="J4mu1uU6xWbNiKVnrsFE-5">
          <mxGeometry relative="1" as="geometry">
            <Array as="points">
              <mxPoint x="40" y="200" />
              <mxPoint x="40" y="300" />
            </Array>
          </mxGeometry>
        </mxCell>
        <mxCell id="J4mu1uU6xWbNiKVnrsFE-25" value="Новости" style="text;html=1;align=center;verticalAlign=middle;whiteSpace=wrap;rounded=0;" parent="1" vertex="1">
          <mxGeometry x="-50" y="185" width="60" height="30" as="geometry" />
        </mxCell>
        <mxCell id="zIve4gpYKc9Zax5QovM5-7" style="edgeStyle=orthogonalEdgeStyle;rounded=0;orthogonalLoop=1;jettySize=auto;html=1;entryX=0.5;entryY=0;entryDx=0;entryDy=0;" edge="1" parent="1" source="J4mu1uU6xWbNiKVnrsFE-34" target="J4mu1uU6xWbNiKVnrsFE-1">
          <mxGeometry relative="1" as="geometry" />
        </mxCell>
        <mxCell id="zIve4gpYKc9Zax5QovM5-8" style="edgeStyle=orthogonalEdgeStyle;rounded=0;orthogonalLoop=1;jettySize=auto;html=1;entryX=0.5;entryY=0;entryDx=0;entryDy=0;" edge="1" parent="1" source="J4mu1uU6xWbNiKVnrsFE-34" target="J4mu1uU6xWbNiKVnrsFE-5">
          <mxGeometry relative="1" as="geometry">
            <Array as="points">
              <mxPoint x="140" y="130" />
              <mxPoint x="220" y="130" />
            </Array>
          </mxGeometry>
        </mxCell>
        <mxCell id="J4mu1uU6xWbNiKVnrsFE-34" value="Новостные&amp;nbsp;&lt;div&gt;темы&lt;/div&gt;" style="text;html=1;align=center;verticalAlign=middle;whiteSpace=wrap;rounded=0;" parent="1" vertex="1">
          <mxGeometry x="110" y="50" width="60" height="30" as="geometry" />
        </mxCell>
        <mxCell id="J4mu1uU6xWbNiKVnrsFE-37" value="Лента рекомендаций" style="text;html=1;align=center;verticalAlign=middle;whiteSpace=wrap;rounded=0;" parent="1" vertex="1">
          <mxGeometry x="1000" y="545" width="60" height="30" as="geometry" />
        </mxCell>
        <mxCell id="zIve4gpYKc9Zax5QovM5-18" style="edgeStyle=orthogonalEdgeStyle;rounded=0;orthogonalLoop=1;jettySize=auto;html=1;entryX=0;entryY=0.5;entryDx=0;entryDy=0;" edge="1" parent="1" source="zIve4gpYKc9Zax5QovM5-15" target="J4mu1uU6xWbNiKVnrsFE-2">
          <mxGeometry relative="1" as="geometry" />
        </mxCell>
        <mxCell id="zIve4gpYKc9Zax5QovM5-36" value="&lt;font style=&quot;font-size: 9px;&quot;&gt;Рекомендации&lt;/font&gt;&lt;div&gt;&lt;font style=&quot;font-size: 9px;&quot;&gt;для пользователя&lt;/font&gt;&lt;/div&gt;" style="edgeLabel;html=1;align=center;verticalAlign=middle;resizable=0;points=[];" vertex="1" connectable="0" parent="zIve4gpYKc9Zax5QovM5-18">
          <mxGeometry x="0.0588" relative="1" as="geometry">
            <mxPoint as="offset" />
          </mxGeometry>
        </mxCell>
        <mxCell id="zIve4gpYKc9Zax5QovM5-15" value="Обработка рекомендаций" style="rounded=0;whiteSpace=wrap;html=1;" vertex="1" parent="1">
          <mxGeometry x="610" y="440" width="120" height="60" as="geometry" />
        </mxCell>
        <mxCell id="zIve4gpYKc9Zax5QovM5-20" style="edgeStyle=orthogonalEdgeStyle;rounded=0;orthogonalLoop=1;jettySize=auto;html=1;entryX=0.5;entryY=1;entryDx=0;entryDy=0;" edge="1" parent="1" source="zIve4gpYKc9Zax5QovM5-19" target="J4mu1uU6xWbNiKVnrsFE-1">
          <mxGeometry relative="1" as="geometry" />
        </mxCell>
        <mxCell id="zIve4gpYKc9Zax5QovM5-21" style="edgeStyle=orthogonalEdgeStyle;rounded=0;orthogonalLoop=1;jettySize=auto;html=1;entryX=0.5;entryY=1;entryDx=0;entryDy=0;" edge="1" parent="1" source="zIve4gpYKc9Zax5QovM5-19" target="J4mu1uU6xWbNiKVnrsFE-5">
          <mxGeometry relative="1" as="geometry" />
        </mxCell>
        <mxCell id="zIve4gpYKc9Zax5QovM5-22" style="edgeStyle=orthogonalEdgeStyle;rounded=0;orthogonalLoop=1;jettySize=auto;html=1;entryX=0.5;entryY=1;entryDx=0;entryDy=0;" edge="1" parent="1" source="zIve4gpYKc9Zax5QovM5-19" target="J4mu1uU6xWbNiKVnrsFE-6">
          <mxGeometry relative="1" as="geometry" />
        </mxCell>
        <mxCell id="zIve4gpYKc9Zax5QovM5-23" style="edgeStyle=orthogonalEdgeStyle;rounded=0;orthogonalLoop=1;jettySize=auto;html=1;entryX=0.5;entryY=1;entryDx=0;entryDy=0;" edge="1" parent="1" source="zIve4gpYKc9Zax5QovM5-19" target="zIve4gpYKc9Zax5QovM5-15">
          <mxGeometry relative="1" as="geometry" />
        </mxCell>
        <mxCell id="zIve4gpYKc9Zax5QovM5-24" style="edgeStyle=orthogonalEdgeStyle;rounded=0;orthogonalLoop=1;jettySize=auto;html=1;entryX=0.5;entryY=1;entryDx=0;entryDy=0;" edge="1" parent="1" source="zIve4gpYKc9Zax5QovM5-19" target="J4mu1uU6xWbNiKVnrsFE-2">
          <mxGeometry relative="1" as="geometry" />
        </mxCell>
        <mxCell id="zIve4gpYKc9Zax5QovM5-19" value="Мобильное приложение" style="text;html=1;align=center;verticalAlign=middle;whiteSpace=wrap;rounded=0;" vertex="1" parent="1">
          <mxGeometry x="330" y="710" width="60" height="30" as="geometry" />
        </mxCell>
        <mxCell id="zIve4gpYKc9Zax5QovM5-30" style="edgeStyle=orthogonalEdgeStyle;rounded=0;orthogonalLoop=1;jettySize=auto;html=1;entryX=0.25;entryY=1;entryDx=0;entryDy=0;" edge="1" parent="1" source="zIve4gpYKc9Zax5QovM5-25" target="J4mu1uU6xWbNiKVnrsFE-1">
          <mxGeometry relative="1" as="geometry" />
        </mxCell>
        <mxCell id="zIve4gpYKc9Zax5QovM5-31" style="edgeStyle=orthogonalEdgeStyle;rounded=0;orthogonalLoop=1;jettySize=auto;html=1;entryX=0.25;entryY=1;entryDx=0;entryDy=0;" edge="1" parent="1" source="zIve4gpYKc9Zax5QovM5-25" target="J4mu1uU6xWbNiKVnrsFE-5">
          <mxGeometry relative="1" as="geometry">
            <Array as="points">
              <mxPoint x="70" y="590" />
              <mxPoint x="190" y="590" />
            </Array>
          </mxGeometry>
        </mxCell>
        <mxCell id="zIve4gpYKc9Zax5QovM5-25" value="Пользователь" style="text;html=1;align=center;verticalAlign=middle;whiteSpace=wrap;rounded=0;" vertex="1" parent="1">
          <mxGeometry x="40" y="620" width="60" height="30" as="geometry" />
        </mxCell>
        <mxCell id="zIve4gpYKc9Zax5QovM5-26" value="" style="endArrow=none;html=1;rounded=0;" edge="1" parent="1">
          <mxGeometry width="50" height="50" relative="1" as="geometry">
            <mxPoint x="140" y="720" as="sourcePoint" />
            <mxPoint x="140" y="700" as="targetPoint" />
          </mxGeometry>
        </mxCell>
        <mxCell id="zIve4gpYKc9Zax5QovM5-27" value="" style="endArrow=none;html=1;rounded=0;" edge="1" parent="1">
          <mxGeometry width="50" height="50" relative="1" as="geometry">
            <mxPoint x="220" y="720" as="sourcePoint" />
            <mxPoint x="219.76" y="692.5" as="targetPoint" />
          </mxGeometry>
        </mxCell>
        <mxCell id="zIve4gpYKc9Zax5QovM5-33" style="edgeStyle=orthogonalEdgeStyle;rounded=0;orthogonalLoop=1;jettySize=auto;html=1;entryX=0.5;entryY=0;entryDx=0;entryDy=0;" edge="1" parent="1" source="zIve4gpYKc9Zax5QovM5-32" target="J4mu1uU6xWbNiKVnrsFE-6">
          <mxGeometry relative="1" as="geometry">
            <Array as="points">
              <mxPoint x="570" y="120" />
              <mxPoint x="450" y="120" />
            </Array>
          </mxGeometry>
        </mxCell>
        <mxCell id="zIve4gpYKc9Zax5QovM5-34" style="edgeStyle=orthogonalEdgeStyle;rounded=0;orthogonalLoop=1;jettySize=auto;html=1;entryX=0.5;entryY=0;entryDx=0;entryDy=0;" edge="1" parent="1" source="zIve4gpYKc9Zax5QovM5-32" target="zIve4gpYKc9Zax5QovM5-15">
          <mxGeometry relative="1" as="geometry">
            <Array as="points">
              <mxPoint x="570" y="120" />
              <mxPoint x="670" y="120" />
            </Array>
          </mxGeometry>
        </mxCell>
        <mxCell id="zIve4gpYKc9Zax5QovM5-35" style="edgeStyle=orthogonalEdgeStyle;rounded=0;orthogonalLoop=1;jettySize=auto;html=1;entryX=0.5;entryY=0;entryDx=0;entryDy=0;" edge="1" parent="1" source="zIve4gpYKc9Zax5QovM5-32" target="J4mu1uU6xWbNiKVnrsFE-2">
          <mxGeometry relative="1" as="geometry">
            <Array as="points">
              <mxPoint x="570" y="120" />
              <mxPoint x="870" y="120" />
            </Array>
          </mxGeometry>
        </mxCell>
        <mxCell id="zIve4gpYKc9Zax5QovM5-32" value="Алгоритмы приложения" style="text;html=1;align=center;verticalAlign=middle;whiteSpace=wrap;rounded=0;" vertex="1" parent="1">
          <mxGeometry x="540" y="50" width="60" height="30" as="geometry" />
        </mxCell>
      </root>
    </mxGraphModel>
  </diagram>
</mxfile>
